<?xml version="1.0" encoding="UTF-8" standalone="no"?>
<svg
   xmlns:osb="http://www.openswatchbook.org/uri/2009/osb"
   xmlns:dc="http://purl.org/dc/elements/1.1/"
   xmlns:cc="http://creativecommons.org/ns#"
   xmlns:rdf="http://www.w3.org/1999/02/22-rdf-syntax-ns#"
   xmlns:svg="http://www.w3.org/2000/svg"
   xmlns="http://www.w3.org/2000/svg"
   xmlns:xlink="http://www.w3.org/1999/xlink"
   id="svg8"
   version="1.1"
   viewBox="0 0 8.5397102 8.4350362"
   height="31.880453"
   width="32.27607">
  <defs
     id="defs2">
    <linearGradient
       osb:paint="solid"
       id="linearGradient932">
      <stop
         id="stop930"
         offset="0"
         style="stop-color:#000000;stop-opacity:1;" />
    </linearGradient>
    <clipPath
       clipPathUnits="userSpaceOnUse"
       id="clipPath1053">
      <use
         height="100%"
         width="100%"
         x="0"
         y="0"
         xlink:href="#g1049"
         id="use1055" />
    </clipPath>
    <clipPath
       id="clipPath2760"
       clipPathUnits="userSpaceOnUse">
      <use
         height="100%"
         width="100%"
         id="use2762"
         xlink:href="#g2756"
         y="0"
         x="0" />
    </clipPath>
    <mask
       id="mask2932"
       maskUnits="userSpaceOnUse">
      <g
         transform="rotate(27.236622,66.342281,116.95063)"
         id="g2940"
         clip-path="none"
         style="display:inline;fill:#000000;fill-opacity:1">
        <rect
           style="opacity:0.992;fill:#ffffff;fill-opacity:1;stroke:#ffffff;stroke-width:0.217512;stroke-linecap:square;stroke-miterlimit:4;stroke-dasharray:none;stroke-opacity:1;paint-order:stroke fill markers"
           id="rect2934"
           width="133.07623"
           height="144.66608"
           x="44.674522"
           y="54.189888" />
        <path
           id="path2936"
           d="m 140.0872,138.40764 c 1.25992,7.52275 13.58559,14.27268 20.12189,13.59307 7.35945,-0.76519 9.99102,-7.60965 8.98828,-9.43199 -4.47356,-8.13008 -30.64361,-13.31693 -29.11017,-4.16108 z"
           style="color:#000000;font-style:normal;font-variant:normal;font-weight:normal;font-stretch:normal;font-size:medium;line-height:normal;font-family:sans-serif;font-variant-ligatures:normal;font-variant-position:normal;font-variant-caps:normal;font-variant-numeric:normal;font-variant-alternates:normal;font-variant-east-asian:normal;font-feature-settings:normal;font-variation-settings:normal;text-indent:0;text-align:start;text-decoration:none;text-decoration-line:none;text-decoration-style:solid;text-decoration-color:#000000;letter-spacing:normal;word-spacing:normal;text-transform:none;writing-mode:lr-tb;direction:ltr;text-orientation:mixed;dominant-baseline:auto;baseline-shift:baseline;text-anchor:start;white-space:normal;shape-padding:0;shape-margin:0;inline-size:0;clip-rule:nonzero;display:block;overflow:visible;visibility:visible;isolation:auto;mix-blend-mode:normal;color-interpolation:sRGB;color-interpolation-filters:linearRGB;solid-color:#000000;solid-opacity:1;vector-effect:none;fill:#000000;fill-opacity:1;fill-rule:nonzero;stroke:none;stroke-width:2.16613;stroke-linecap:butt;stroke-linejoin:miter;stroke-miterlimit:4;stroke-dasharray:none;stroke-dashoffset:0;stroke-opacity:1;color-rendering:auto;image-rendering:auto;shape-rendering:auto;text-rendering:auto;enable-background:accumulate;stop-color:#000000;stop-opacity:1" />
        <path
           mask="none"
           transform="rotate(-27.236622,66.342277,116.95063)"
           clip-path="none"
           id="path2938"
           d="m 111.125,168.1994 c -5.2707,2.7794 -3.40568,10.18084 -2.83343,15.07424 1.39773,11.45315 9.41753,21.0175 10.02203,32.61735 0.61261,7.42385 -7.71946,9.52391 -13.71251,9.21741 -8.900002,-0.45517 -18.255919,-5.10467 -20.613025,-14.16375 -3.569696,-13.30533 1.31347,-27.80727 9.678433,-38.32663 5.445744,-3.45932 6.021408,-9.50242 6.334222,-15.43603 2.89682,-28.75138 3.81557,-57.676518 7.01914,-86.395895 0.70365,-6.063453 3.28885,4.547824 4.0006,6.648514 4.48195,19.244853 2.74163,39.196681 1.92225,58.741571 -0.59422,10.67507 -1.28753,21.3446 -1.81771,32.02322 z"
           style="color:#000000;font-style:normal;font-variant:normal;font-weight:normal;font-stretch:normal;font-size:medium;line-height:normal;font-family:sans-serif;font-variant-ligatures:normal;font-variant-position:normal;font-variant-caps:normal;font-variant-numeric:normal;font-variant-alternates:normal;font-variant-east-asian:normal;font-feature-settings:normal;font-variation-settings:normal;text-indent:0;text-align:start;text-decoration:none;text-decoration-line:none;text-decoration-style:solid;text-decoration-color:#000000;letter-spacing:normal;word-spacing:normal;text-transform:none;writing-mode:lr-tb;direction:ltr;text-orientation:mixed;dominant-baseline:auto;baseline-shift:baseline;text-anchor:start;white-space:normal;shape-padding:0;shape-margin:0;inline-size:0;clip-rule:nonzero;display:inline;overflow:visible;visibility:visible;isolation:auto;mix-blend-mode:normal;color-interpolation:sRGB;color-interpolation-filters:linearRGB;solid-color:#000000;solid-opacity:1;vector-effect:none;fill:#000000;fill-opacity:1;fill-rule:nonzero;stroke:#000000;stroke-width:1.73291;stroke-linecap:butt;stroke-linejoin:miter;stroke-miterlimit:4;stroke-dasharray:none;stroke-dashoffset:0;stroke-opacity:1;color-rendering:auto;image-rendering:auto;shape-rendering:auto;text-rendering:auto;enable-background:accumulate;stop-color:#000000" />
      </g>
    </mask>
    <mask
       id="mask2953"
       maskUnits="userSpaceOnUse">
      <g
         transform="rotate(27.236622,66.342281,116.95063)"
         id="g2959">
        <rect
           style="opacity:0.992;fill:#ffffff;fill-opacity:1;stroke:#ffffff;stroke-width:0.217512;stroke-linecap:square;stroke-miterlimit:4;stroke-dasharray:none;stroke-opacity:1;paint-order:stroke fill markers"
           id="rect2955"
           width="133.07623"
           height="144.66608"
           x="44.674522"
           y="54.189888" />
        <path
           id="path2957"
           d="m 129.89114,161.50069 c 5.64559,5.2245 20.11737,16.80703 18.80625,23.40341 -0.93545,4.70631 -5.60525,5.72196 -8.54696,5.80031 -21.71838,1.09177 -24.29295,-42.19069 -10.25929,-29.20372 z"
           style="color:#000000;font-style:normal;font-variant:normal;font-weight:normal;font-stretch:normal;font-size:medium;line-height:normal;font-family:sans-serif;font-variant-ligatures:normal;font-variant-position:normal;font-variant-caps:normal;font-variant-numeric:normal;font-variant-alternates:normal;font-variant-east-asian:normal;font-feature-settings:normal;font-variation-settings:normal;text-indent:0;text-align:start;text-decoration:none;text-decoration-line:none;text-decoration-style:solid;text-decoration-color:#000000;letter-spacing:normal;word-spacing:normal;text-transform:none;writing-mode:lr-tb;direction:ltr;text-orientation:mixed;dominant-baseline:auto;baseline-shift:baseline;text-anchor:start;white-space:normal;shape-padding:0;shape-margin:0;inline-size:0;clip-rule:nonzero;display:inline;overflow:visible;visibility:visible;isolation:auto;mix-blend-mode:normal;color-interpolation:sRGB;color-interpolation-filters:linearRGB;solid-color:#000000;solid-opacity:1;vector-effect:none;fill:#000000;fill-opacity:1;fill-rule:nonzero;stroke:none;stroke-width:2.16613;stroke-linecap:butt;stroke-linejoin:miter;stroke-miterlimit:4;stroke-dasharray:none;stroke-dashoffset:0;stroke-opacity:1;color-rendering:auto;image-rendering:auto;shape-rendering:auto;text-rendering:auto;enable-background:accumulate;stop-color:#000000;stop-opacity:1" />
      </g>
    </mask>
  </defs>
  <metadata
     id="metadata5">
    <rdf:RDF>
      <cc:Work
         rdf:about="">
        <dc:format>image/svg+xml</dc:format>
        <dc:type
           rdf:resource="http://purl.org/dc/dcmitype/StillImage" />
        <dc:title></dc:title>
      </cc:Work>
    </rdf:RDF>
  </metadata>
  <g
     transform="matrix(0.06406685,0,0,0.05821858,-2.8551883,-3.1485267)"
     id="layer1">
    <path
       mask="url(#mask2953)"
       transform="rotate(-27.236622,66.342277,116.95063)"
       clip-path="none"
       id="path996"
       d="m 111.125,168.1994 c -5.2707,2.7794 -3.40568,10.18084 -2.83343,15.07424 1.39773,11.45315 9.41753,21.0175 10.02203,32.61735 0.61261,7.42385 -7.71946,9.52391 -13.71251,9.21741 -8.900002,-0.45517 -18.255919,-5.10467 -20.613025,-14.16375 -3.569696,-13.30533 1.31347,-27.80727 9.678433,-38.32663 5.445744,-3.45932 6.021408,-9.50242 6.334222,-15.43603 2.89682,-28.75138 3.81557,-57.676518 7.01914,-86.395895 0.70365,-6.063453 3.28885,4.547824 4.0006,6.648514 4.48195,19.244853 2.74163,39.196681 1.92225,58.741571 -0.59422,10.67507 -1.28753,21.3446 -1.81771,32.02322 z"
       style="color:#000000;font-style:normal;font-variant:normal;font-weight:normal;font-stretch:normal;font-size:medium;line-height:normal;font-family:sans-serif;font-variant-ligatures:normal;font-variant-position:normal;font-variant-caps:normal;font-variant-numeric:normal;font-variant-alternates:normal;font-variant-east-asian:normal;font-feature-settings:normal;font-variation-settings:normal;text-indent:0;text-align:start;text-decoration:none;text-decoration-line:none;text-decoration-style:solid;text-decoration-color:#000000;letter-spacing:normal;word-spacing:normal;text-transform:none;writing-mode:lr-tb;direction:ltr;text-orientation:mixed;dominant-baseline:auto;baseline-shift:baseline;text-anchor:start;white-space:normal;shape-padding:0;shape-margin:0;inline-size:0;clip-rule:nonzero;display:inline;overflow:visible;visibility:visible;isolation:auto;mix-blend-mode:normal;color-interpolation:sRGB;color-interpolation-filters:linearRGB;solid-color:#000000;solid-opacity:1;vector-effect:none;fill:#ffff00;fill-opacity:1;fill-rule:nonzero;stroke:#000000;stroke-width:2.16613237;stroke-linecap:butt;stroke-linejoin:miter;stroke-miterlimit:4;stroke-dasharray:none;stroke-dashoffset:0;stroke-opacity:1;color-rendering:auto;image-rendering:auto;shape-rendering:auto;text-rendering:auto;enable-background:accumulate;stop-color:#000000" />
    <path
       id="path2949"
       d="m 125.4668,157.99023 c -1.62167,-0.0811 -3.02382,0.8372 -3.86328,2.17188 -1.67894,2.66936 -1.88709,6.97759 -1.05664,11.66797 0.83044,4.69038 2.79609,9.74618 6.03124,13.63867 3.2344,3.89157 7.83593,6.60593 13.62305,6.31641 0.001,-7e-5 0.003,6e-5 0.004,0 1.57696,-0.0442 3.60647,-0.32383 5.4668,-1.28321 1.86927,-0.964 3.55588,-2.71018 4.08789,-5.38672 0.41386,-2.0822 -0.39803,-4.26652 -1.72657,-6.47461 -1.32854,-2.20808 -3.23498,-4.48016 -5.3457,-6.69921 -4.22145,-4.43811 -9.28351,-8.66643 -12.06055,-11.23633 -1.8582,-1.71961 -3.53849,-2.63375 -5.16015,-2.71485 z m -0.10938,2.16407 c 0.83883,0.0419 2.14862,0.61349 3.79883,2.14062 2.86855,2.6546 7.86483,6.83029 11.96289,11.13867 2.04903,2.15419 3.866,4.34208 5.05859,6.32422 1.1926,1.98214 1.69873,3.71956 1.45704,4.93555 -0.40345,2.02977 -1.52017,3.14282 -2.95508,3.88281 -1.43491,0.73999 -3.19701,1.00866 -4.5586,1.04492 h -0.0117 l -0.0137,0.002 c -5.07014,0.25487 -8.93424,-2.029 -11.85156,-5.53907 -2.91732,-3.51006 -4.79066,-8.26046 -5.56445,-12.63086 -0.77379,-4.37039 -0.35074,-8.37927 0.75586,-10.13867 0.5533,-0.87969 1.08304,-1.2021 1.92187,-1.16015 z"
       style="color:#000000;font-style:normal;font-variant:normal;font-weight:normal;font-stretch:normal;font-size:medium;line-height:normal;font-family:sans-serif;font-variant-ligatures:normal;font-variant-position:normal;font-variant-caps:normal;font-variant-numeric:normal;font-variant-alternates:normal;font-variant-east-asian:normal;font-feature-settings:normal;font-variation-settings:normal;text-indent:0;text-align:start;text-decoration:none;text-decoration-line:none;text-decoration-style:solid;text-decoration-color:#000000;letter-spacing:normal;word-spacing:normal;text-transform:none;writing-mode:lr-tb;direction:ltr;text-orientation:mixed;dominant-baseline:auto;baseline-shift:baseline;text-anchor:start;white-space:normal;shape-padding:0;shape-margin:0;inline-size:0;clip-rule:nonzero;display:inline;overflow:visible;visibility:visible;isolation:auto;mix-blend-mode:normal;color-interpolation:sRGB;color-interpolation-filters:linearRGB;solid-color:#000000;solid-opacity:1;vector-effect:none;fill:#000000;fill-opacity:1;fill-rule:nonzero;stroke:none;stroke-width:2.16613;stroke-linecap:butt;stroke-linejoin:miter;stroke-miterlimit:4;stroke-dasharray:none;stroke-dashoffset:0;stroke-opacity:1;color-rendering:auto;image-rendering:auto;shape-rendering:auto;text-rendering:auto;enable-background:accumulate;stop-color:#000000;stop-opacity:1" />
    <path
       transform="rotate(-27.236622,66.342277,116.95063)"
       clip-path="none"
       mask="url(#mask2932)"
       id="path37-4-0"
       d="m 111.62613,167.33077 c 0,0 2.72598,1.20771 6.35522,13.78926 2.71806,9.42276 17.73664,23.55273 30.54662,14.89104 11.01478,-7.44784 -5.0491,-33.77535 -25.90485,-35.6229 -3.56583,-0.31589 -57.542222,-76.541019 -62.004544,-79.1859 2.123951,21.8771 25.89283,50.92849 51.007554,86.1285 z"
       style="fill:#ffff00;fill-opacity:1;stroke:#000000;stroke-width:2.16613;stroke-linecap:butt;stroke-linejoin:miter;stroke-miterlimit:4;stroke-dasharray:none;stroke-opacity:1" />
    <path
       id="path2904"
       d="m 147.44922,132.4668 c -1.61097,-6.3e-4 -3.10056,0.16743 -4.39258,0.54492 -1.29202,0.37749 -2.41923,0.97781 -3.1875,1.93359 -0.76827,0.95578 -1.08136,2.25687 -0.84961,3.64063 0.71629,4.2768 4.36249,7.97078 8.57422,10.61133 4.21173,2.64054 9.0219,4.26605 12.72656,3.88085 3.99691,-0.41557 6.79225,-2.51498 8.40039,-4.76757 0.80407,-1.1263 1.32422,-2.2886 1.58203,-3.35157 0.25782,-1.06296 0.32895,-2.03034 -0.15625,-2.9121 -1.30995,-2.38067 -3.95742,-4.2799 -7.12695,-5.82032 -3.16952,-1.54042 -6.89235,-2.68759 -10.44922,-3.28906 -1.77843,-0.30073 -3.51012,-0.47007 -5.12109,-0.4707 z m -0.008,2.18164 c 1.46335,-0.001 3.091,0.14227 4.76757,0.42578 3.35316,0.56702 6.91566,1.66898 9.86329,3.10156 2.94762,1.43258 5.24895,3.23164 6.17578,4.91602 0.0162,0.0294 0.13473,0.60061 -0.0488,1.35742 -0.18356,0.75681 -0.59378,1.69526 -1.24219,2.60351 -1.29682,1.81652 -3.49683,3.52148 -6.85937,3.8711 -2.83164,0.29442 -7.45336,-1.11534 -11.35352,-3.56055 -3.90016,-2.44521 -7.04425,-5.88882 -7.58789,-9.13476 -0.15161,-0.90521 0.0155,-1.44449 0.40234,-1.92579 0.38687,-0.48129 1.08979,-0.91418 2.10547,-1.21093 1.01568,-0.29675 2.31399,-0.44226 3.77735,-0.44336 z"
       style="color:#000000;font-style:normal;font-variant:normal;font-weight:normal;font-stretch:normal;font-size:medium;line-height:normal;font-family:sans-serif;font-variant-ligatures:normal;font-variant-position:normal;font-variant-caps:normal;font-variant-numeric:normal;font-variant-alternates:normal;font-variant-east-asian:normal;font-feature-settings:normal;font-variation-settings:normal;text-indent:0;text-align:start;text-decoration:none;text-decoration-line:none;text-decoration-style:solid;text-decoration-color:#000000;letter-spacing:normal;word-spacing:normal;text-transform:none;writing-mode:lr-tb;direction:ltr;text-orientation:mixed;dominant-baseline:auto;baseline-shift:baseline;text-anchor:start;white-space:normal;shape-padding:0;shape-margin:0;inline-size:0;clip-rule:nonzero;display:block;overflow:visible;visibility:visible;isolation:auto;mix-blend-mode:normal;color-interpolation:sRGB;color-interpolation-filters:linearRGB;solid-color:#000000;solid-opacity:1;vector-effect:none;fill:#000000;fill-opacity:1;fill-rule:nonzero;stroke:none;stroke-width:2.16613;stroke-linecap:butt;stroke-linejoin:miter;stroke-miterlimit:4;stroke-dasharray:none;stroke-dashoffset:0;stroke-opacity:1;color-rendering:auto;image-rendering:auto;shape-rendering:auto;text-rendering:auto;enable-background:accumulate;stop-color:#000000;stop-opacity:1" />
  </g>
</svg>
