<?xml version="1.0" encoding="UTF-8" standalone="no"?>
<svg
   xmlns:osb="http://www.openswatchbook.org/uri/2009/osb"
   xmlns:dc="http://purl.org/dc/elements/1.1/"
   xmlns:cc="http://creativecommons.org/ns#"
   xmlns:rdf="http://www.w3.org/1999/02/22-rdf-syntax-ns#"
   xmlns:svg="http://www.w3.org/2000/svg"
   xmlns="http://www.w3.org/2000/svg"
   xmlns:xlink="http://www.w3.org/1999/xlink"
   width="32.0056"
   height="31.999998"
   viewBox="0 0 8.4681484 8.4666658"
   version="1.1"
   id="svg8">
  <defs
     id="defs2">
    <linearGradient
       id="linearGradient932"
       osb:paint="solid">
      <stop
         style="stop-color:#000000;stop-opacity:1;"
         offset="0"
         id="stop930" />
    </linearGradient>
    <clipPath
       id="clipPath1007"
       clipPathUnits="userSpaceOnUse">
      <path
         mask="none"
         style="display:none;fill:#ffffff;fill-opacity:1;stroke:#000000;stroke-width:0.217269px;stroke-linecap:butt;stroke-linejoin:miter;stroke-opacity:1"
         d="m 102.45604,185.64533 c 2.62855,7.22903 10.19482,24.15058 6.01013,29.41552 -2.98565,3.75637 -7.60251,2.5222 -10.253911,1.24555 -19.810002,-8.96906 -2.290193,-48.63083 4.243781,-30.66107 z"
         id="path1009"
         clip-path="none" />
      <path
         d="M 77.805644,63.937014 H 123.34554 V 230.13696 H 77.805644 Z M 102.45604,185.64533 c -6.533974,-17.96976 -24.053783,21.69201 -4.243781,30.66107 2.651401,1.27665 7.268261,2.51082 10.253911,-1.24555 4.18469,-5.26494 -3.38158,-22.18649 -6.01013,-29.41552 z"
         class="powerclip"
         style="display:block;fill:#ffffff;fill-opacity:1;stroke:#000000;stroke-width:0.217269px;stroke-linecap:butt;stroke-linejoin:miter;stroke-opacity:1"
         id="lpe_path-effect1011" />
    </clipPath>
    <clipPath
       id="clipPath1053"
       clipPathUnits="userSpaceOnUse">
      <use
         id="use1055"
         xlink:href="#g1049"
         y="0"
         x="0" />
    </clipPath>
    <clipPath
       id="clipPath1057"
       clipPathUnits="userSpaceOnUse">
      <g
         style="display:none"
         clip-path="url(#clipPath1053)"
         id="g1065">
        <g
           id="g1063">
          <path
             style="display:block;fill:#ffffff;fill-opacity:1;stroke:#000000;stroke-width:0.160725px;stroke-linecap:butt;stroke-linejoin:miter;stroke-opacity:1"
             d="m 122.09051,169.77914 c -2.32268,7.26528 5.54715,18.90785 11.66976,21.29504 6.89367,2.68782 12.36594,-2.19337 12.30841,-4.27258 -0.25669,-9.27604 -21.15126,-25.86495 -23.97817,-17.02246 z"
             id="path1059"
             clip-path="none"
             mask="none" />
          <path
             id="path1061"
             style="color:#000000;font-style:normal;font-variant:normal;font-weight:normal;font-stretch:normal;font-size:medium;line-height:normal;font-family:sans-serif;font-variant-ligatures:normal;font-variant-position:normal;font-variant-caps:normal;font-variant-numeric:normal;font-variant-alternates:normal;font-variant-east-asian:normal;font-feature-settings:normal;font-variation-settings:normal;text-indent:0;text-align:start;text-decoration:none;text-decoration-line:none;text-decoration-style:solid;text-decoration-color:#000000;letter-spacing:normal;word-spacing:normal;text-transform:none;writing-mode:lr-tb;direction:ltr;text-orientation:mixed;dominant-baseline:auto;baseline-shift:baseline;text-anchor:start;white-space:normal;shape-padding:0;shape-margin:0;inline-size:0;clip-rule:nonzero;display:inline;overflow:visible;visibility:visible;isolation:auto;mix-blend-mode:normal;color-interpolation:sRGB;color-interpolation-filters:linearRGB;solid-color:#000000;solid-opacity:1;vector-effect:none;fill:#ffffff;fill-opacity:1;fill-rule:nonzero;stroke:none;stroke-width:0.342359px;stroke-linecap:butt;stroke-linejoin:miter;stroke-miterlimit:4;stroke-dasharray:none;stroke-dashoffset:0;stroke-opacity:1;color-rendering:auto;image-rendering:auto;shape-rendering:auto;text-rendering:auto;enable-background:accumulate;stop-color:#000000;stop-opacity:1"
             d="m 107.55273,67.726562 c -1.31398,0.180322 -1.62569,1.684232 -1.73437,2.779297 -3.20838,28.861307 -4.17266,57.915421 -7.056746,86.806851 -0.241248,3.94746 -0.490651,8.18534 -2.839739,11.53299 -0.817782,1.18555 -1.952312,2.0819 -3.099609,2.92188 -1.105865,1.2202 -1.99377,2.62505 -2.931482,3.97614 -5.463086,8.29837 -8.806381,18.23791 -8.240393,28.24261 0.307388,4.56451 1.156146,9.32502 3.868867,13.1242 3.961834,5.58002 10.71532,8.75515 17.455692,9.17103 2.79478,0.18863 5.65613,0.38521 8.38619,-0.40044 3.10242,-0.83225 6.23637,-2.6766 7.50625,-5.76819 0.96621,-2.07334 0.74473,-4.40963 0.45414,-6.60578 -1.2378,-9.49601 -6.88891,-17.65338 -9.14965,-26.8177 -0.69361,-2.87736 -0.95369,-5.82849 -1.31942,-8.75382 -0.20918,-2.53999 -0.34114,-5.45357 1.40019,-7.53126 0.51065,-0.76099 1.5273,-0.92475 2.03055,-1.66414 0.19767,-0.94659 0.091,-1.9566 0.19798,-2.92783 0.75038,-14.27256 1.72615,-28.53986 2.29563,-42.82823 0.64064,-14.22847 0.89599,-28.629198 -1.8766,-42.667198 -0.63052,-3.304721 -1.63292,-6.486601 -2.70294,-9.65291 -0.50891,-1.060933 -0.87416,-2.512294 -2.125,-2.912109 -0.17044,-0.03192 -0.34768,-0.05737 -0.51954,-0.02539 z m 0.70704,4.876954 c 1.08657,3.2709 2.02521,6.659088 2.57793,10.093052 2.82384,15.795526 1.85736,32.022272 1.11992,48.021652 -0.539,11.97039 -1.3828,23.94957 -1.98251,35.93298 0.0857,0.61653 -0.12505,1.03854 -0.68635,1.30413 -2.34895,1.90328 -3.12094,5.08989 -3.00751,7.99389 0.0836,3.25692 0.67076,6.47311 1.14063,9.68945 1.72393,8.95926 6.9581,16.71154 8.9938,25.56845 0.44631,2.39545 1.00513,4.92416 0.45346,7.28897 -0.82887,2.79519 -3.69071,4.43647 -6.31836,5.04688 -2.10229,0.56183 -4.29566,0.51732 -6.44291,0.32745 -6.50906,-0.12054 -13.174028,-3.09276 -16.866723,-8.59145 -2.119794,-3.22184 -2.755463,-7.09083 -3.108063,-10.83975 -0.381177,-5.37441 0.456291,-10.77296 2.162121,-15.83281 1.316755,-3.89896 3.19292,-7.71523 5.429512,-11.18032 0.943267,-1.40081 1.87598,-2.85299 3.042255,-4.06781 3.421818,-2.26957 5.309158,-6.2494 5.890068,-10.21984 0.55549,-3.49425 0.58523,-7.0451 1.01965,-10.55415 2.50938,-26.76328 3.50752,-53.672959 6.43854,-80.385071 0.0482,0.134765 0.0964,0.269531 0.14454,0.404297 z" />
        </g>
      </g>
      <path
         d="M 55.415592,75.882969 H 157.2751 V 203.879 H 55.415592 Z m 66.674918,93.896171 c -2.32268,7.26528 5.54715,18.90785 11.66976,21.29504 6.89367,2.68782 12.36594,-2.19337 12.30841,-4.27258 -0.25669,-9.27604 -21.15126,-25.86495 -23.97817,-17.02246 z M 107.55273,67.726562 c -1.31398,0.180322 -1.62569,1.684232 -1.73437,2.779297 -3.20838,28.861307 -4.17266,57.915421 -7.056746,86.806851 -0.241248,3.94746 -0.490651,8.18534 -2.839739,11.53299 -0.817782,1.18555 -1.952312,2.0819 -3.099609,2.92188 -1.105865,1.2202 -1.99377,2.62505 -2.931482,3.97614 -5.463086,8.29837 -8.806381,18.23791 -8.240393,28.24261 0.307388,4.56451 1.156146,9.32502 3.868867,13.1242 3.961834,5.58002 10.71532,8.75515 17.455692,9.17103 2.79478,0.18863 5.65613,0.38521 8.38619,-0.40044 3.10242,-0.83225 6.23637,-2.6766 7.50625,-5.76819 0.96621,-2.07334 0.74473,-4.40963 0.45414,-6.60578 -1.2378,-9.49601 -6.88891,-17.65338 -9.14965,-26.8177 -0.69361,-2.87736 -0.95369,-5.82849 -1.31942,-8.75382 -0.20918,-2.53999 -0.34114,-5.45357 1.40019,-7.53126 0.51065,-0.76099 1.5273,-0.92475 2.03055,-1.66414 0.19767,-0.94659 0.091,-1.9566 0.19798,-2.92783 0.75038,-14.27256 1.72615,-28.53986 2.29563,-42.82823 0.64064,-14.22847 0.89599,-28.629198 -1.8766,-42.667198 -0.63052,-3.304721 -1.63292,-6.486601 -2.70294,-9.65291 -0.50891,-1.060933 -0.87416,-2.512294 -2.125,-2.912109 -0.17044,-0.03192 -0.34768,-0.05737 -0.51954,-0.02539 z m 0.70704,4.876954 c -0.0481,-0.134766 -0.0963,-0.269532 -0.14454,-0.404297 -2.93102,26.712112 -3.92916,53.621791 -6.43854,80.385071 -0.43442,3.50905 -0.46416,7.0599 -1.01965,10.55415 -0.58091,3.97044 -2.46825,7.95027 -5.890068,10.21984 -1.166275,1.21482 -2.098988,2.667 -3.042255,4.06781 -2.236592,3.46509 -4.112757,7.28136 -5.429512,11.18032 -1.70583,5.05985 -2.543298,10.4584 -2.162121,15.83281 0.3526,3.74892 0.988269,7.61791 3.108063,10.83975 3.692695,5.49869 10.357663,8.47091 16.866723,8.59145 2.14725,0.18987 4.34062,0.23438 6.44291,-0.32745 2.62765,-0.61041 5.48949,-2.25169 6.31836,-5.04688 0.55167,-2.36481 -0.007,-4.89352 -0.45346,-7.28897 -2.0357,-8.85691 -7.26987,-16.60919 -8.9938,-25.56845 -0.46987,-3.21634 -1.05703,-6.43253 -1.14063,-9.68945 -0.11343,-2.904 0.65856,-6.09061 3.00751,-7.99389 0.5613,-0.26559 0.77205,-0.6876 0.68635,-1.30413 0.59971,-11.98341 1.44351,-23.96259 1.98251,-35.93298 0.73744,-15.99938 1.70392,-32.226126 -1.11992,-48.021652 -0.55272,-3.433964 -1.49136,-6.822152 -2.57793,-10.093052 z"
         class="powerclip"
         id="lpe_path-effect1067" />
    </clipPath>
  </defs>
  <metadata
     id="metadata5">
    <rdf:RDF>
      <cc:Work
         rdf:about="">
        <dc:format>image/svg+xml</dc:format>
        <dc:type
           rdf:resource="http://purl.org/dc/dcmitype/StillImage" />
        <dc:title></dc:title>
      </cc:Work>
    </rdf:RDF>
  </metadata>
  <g
     id="layer1"
     transform="matrix(0.06406685,0,0,0.05821858,-2.8551882,-3.1485267)">
    <g
       id="g1032"
       transform="rotate(-27.236622,66.342277,116.95063)">
      <path
         clip-path="url(#clipPath1057)"
         mask="none"
         id="path37-4-0"
         d="m 111.62613,167.33077 c 0,0 2.72598,1.20771 6.35522,13.78926 2.71806,9.42276 17.73664,23.55273 30.54662,14.89104 11.01478,-7.44784 -5.0491,-33.77535 -25.90485,-35.6229 -3.56583,-0.31589 -57.542222,-76.541019 -62.004544,-79.1859 2.123951,21.8771 25.89283,50.92849 51.007554,86.1285 z"
         style="fill:#000000;fill-opacity:1;stroke:#000000;stroke-width:0.34236px;stroke-linecap:butt;stroke-linejoin:miter;stroke-opacity:1" />
      <path
         clip-path="url(#clipPath1007)"
         id="path996"
         d="m 111.125,168.1994 c -5.2707,2.7794 -3.40568,10.18084 -2.83343,15.07424 1.39773,11.45315 9.41753,21.0175 10.02203,32.61735 0.61261,7.42385 -7.71946,9.52391 -13.71251,9.21741 -8.900002,-0.45517 -18.255919,-5.10467 -20.613025,-14.16375 -3.569696,-13.30533 1.31347,-27.80727 9.678433,-38.32663 5.445744,-3.45932 6.021408,-9.50242 6.334222,-15.43603 2.89682,-28.75138 3.81557,-57.676518 7.01914,-86.395895 0.70365,-6.063453 3.28885,4.547824 4.0006,6.648514 4.48195,19.244853 2.74163,39.196681 1.92225,58.741571 -0.59422,10.67507 -1.28753,21.3446 -1.81771,32.02322 z"
         style="color:#000000;font-style:normal;font-variant:normal;font-weight:normal;font-stretch:normal;font-size:medium;line-height:normal;font-family:sans-serif;font-variant-ligatures:normal;font-variant-position:normal;font-variant-caps:normal;font-variant-numeric:normal;font-variant-alternates:normal;font-variant-east-asian:normal;font-feature-settings:normal;font-variation-settings:normal;text-indent:0;text-align:start;text-decoration:none;text-decoration-line:none;text-decoration-style:solid;text-decoration-color:#000000;letter-spacing:normal;word-spacing:normal;text-transform:none;writing-mode:lr-tb;direction:ltr;text-orientation:mixed;dominant-baseline:auto;baseline-shift:baseline;text-anchor:start;white-space:normal;shape-padding:0;shape-margin:0;inline-size:0;clip-rule:nonzero;display:inline;overflow:visible;visibility:visible;isolation:auto;mix-blend-mode:normal;color-interpolation:sRGB;color-interpolation-filters:linearRGB;solid-color:#000000;solid-opacity:1;vector-effect:none;fill:#000000;fill-opacity:1;fill-rule:nonzero;stroke:none;stroke-width:0.342359px;stroke-linecap:butt;stroke-linejoin:miter;stroke-miterlimit:4;stroke-dasharray:none;stroke-dashoffset:0;stroke-opacity:1;color-rendering:auto;image-rendering:auto;shape-rendering:auto;text-rendering:auto;enable-background:accumulate;stop-color:#000000;stop-opacity:1" />
    </g>
  </g>
</svg>
